External Loads File
version=1
nRows=31
nColumns=13
Range=5.000000e-03-10 seconds
endheader
time 	forceRightX 	forceRightY 	forceRightZ 	pointRightX 	pointRightY 	pointRightZ 	forceLeftX 	forceLeftY 	forceLeftZ 	pointLeftX 	pointLeftY 	pointLeftZ 		
5.005000 -83.338735 527.459950 -0.000000 0.325129 0.285628 -0.104576 50.715279 -28.684419 -0.000000 0.051601 0.329878 -0.341758
5.010000 -71.349135 558.821440 -0.000000 0.322283 0.274845 -0.104555 56.621017 -25.606296 -0.000000 0.054475 0.340211 -0.341720
5.015000 -56.761337 589.607264 -0.000000 0.318943 0.264133 -0.103868 61.908237 -22.830487 -0.000000 0.057888 0.350481 -0.341726
5.020000 -40.921428 619.506377 -0.000000 0.315463 0.253751 -0.104143 66.558446 -20.224367 -0.000000 0.061856 0.360579 -0.341685
5.025000 -23.269286 648.360143 -0.000000 0.311334 0.243606 -0.104063 70.500572 -17.921249 -0.000000 0.066498 0.370488 -0.341668
5.030000 -4.664205 675.865260 -0.000000 0.306727 0.233758 -0.103937 73.700076 -15.971746 -0.000000 0.071606 0.380105 -0.341642
5.035000 14.179015 701.800449 -0.000000 0.301812 0.224422 -0.103939 76.067367 -14.516231 -0.000000 0.077223 0.389488 -0.341764
5.040000 33.644039 726.002136 -0.000000 0.296401 0.215516 -0.104062 77.444177 -13.863178 -0.000000 0.083406 0.398623 -0.341791
5.045000 53.258877 748.350365 -0.000000 0.290738 0.207206 -0.104141 77.652555 -14.221453 -0.000000 0.090094 0.407684 -0.341907
5.050000 73.219571 768.662185 -0.000000 0.284296 0.199351 -0.103847 76.462989 -15.803953 -0.000000 0.097096 0.416194 -0.341954
5.055000 92.571976 786.789543 -0.000000 0.277845 0.191895 -0.103980 73.651029 -18.604068 -0.000000 0.104628 0.424116 -0.342031
5.060000 112.750376 802.271850 -0.000000 0.270931 0.184857 -0.103942 68.966534 -22.731761 -0.000000 0.112673 0.431571 -0.342146
5.065000 133.841695 814.677560 -0.000000 0.263671 0.178286 -0.104034 62.269870 -28.024408 -0.000000 0.121102 0.439054 -0.342142
5.070000 159.711958 822.780213 -0.000000 0.256053 0.172302 -0.104017 53.402703 -34.410467 -0.000000 0.131741 0.445748 -0.343898
5.075000 174.537286 829.183218 -0.000000 0.248107 0.166864 -0.103979 43.213984 -40.438448 -0.000000 0.138702 0.451684 -0.342087
5.080000 194.535726 830.353042 -0.000000 0.239904 0.161912 -0.103932 31.357591 -46.615974 -0.000000 0.147848 0.457587 -0.341987
5.085000 213.809621 827.024573 -0.000000 0.231404 0.157490 -0.103821 18.512938 -51.974936 -0.000000 0.157313 0.462766 -0.341868
5.090000 231.045035 819.250084 -0.000000 0.222743 0.153747 -0.103588 5.228784 -55.925650 -0.000000 0.166856 0.467152 -0.341696
5.095000 246.561684 806.802125 -0.000000 0.213899 0.150572 -0.103347 -8.056271 -57.991650 -0.000000 0.176615 0.471052 -0.341549
5.100000 259.370566 789.916022 -0.000000 0.204974 0.148049 -0.103074 -20.826221 -57.792582 -0.000000 0.186427 0.474296 -0.341464
5.105000 269.061068 768.736068 -0.000000 0.196059 0.146045 -0.102668 -32.631030 -55.127076 -0.000000 0.196256 0.476935 -0.341530
5.110000 275.681247 743.277840 -0.000000 0.187181 0.144810 -0.102150 -43.144869 -49.998728 -0.000000 0.206179 0.478738 -0.341134
5.115000 279.826159 713.328948 -0.000000 0.178260 0.143949 -0.101745 -52.212192 -42.611878 -0.000000 0.216369 0.479803 -0.341053
5.120000 280.298842 679.331586 -0.000000 0.169387 0.143934 -0.101350 -59.699976 -33.509778 -0.000000 0.226272 0.480108 -0.340387
5.125000 277.507061 641.101174 -0.000000 0.160660 0.144731 -0.100896 -65.687694 -23.280468 -0.000000 0.235998 0.479846 -0.340666
5.130000 271.363706 598.681350 -0.000000 0.152066 0.146029 -0.100519 -70.301554 -12.618603 -0.000000 0.245488 0.478830 -0.340728
5.135000 262.102926 552.110378 -0.000000 0.143848 0.148194 -0.100031 -73.755224 -2.217007 -0.000000 0.254849 0.477101 -0.341046
5.140000 249.587043 501.824283 -0.000000 0.135675 0.151045 -0.100117 -76.355841 7.218627 -0.000000 0.263625 0.474776 -0.341246
5.145000 234.579139 448.095741 -0.000000 0.127540 0.154662 -0.100290 -78.474241 15.288639 -0.000000 0.272037 0.471740 -0.341843
5.150000 216.750055 392.036654 -0.000000 0.119811 0.159009 -0.100293 -80.472847 21.759114 -0.000000 0.279961 0.467956 -0.342413
5.155000 196.198829 334.879986 -0.000000 0.112349 0.164022 -0.100380 -82.633095 26.813315 -0.000000 0.287208 0.463792 -0.342956
